<svg width="660" height="303" viewBox="0 0 660 303" fill="none" xmlns="http://www.w3.org/2000/svg">
<path d="M500.947 175.984C503.722 177.459 507.168 176.406 508.643 173.632C510.119 170.857 509.066 167.411 506.291 165.936C503.517 164.46 500.071 165.513 498.596 168.288C497.12 171.062 498.173 174.508 500.947 175.984Z" fill="#FF6584"/>
<path d="M496.809 239.531C499.583 241.006 503.029 239.953 504.505 237.179C505.98 234.404 504.927 230.958 502.153 229.483C499.378 228.007 495.933 229.06 494.457 231.835C492.981 234.609 494.034 238.055 496.809 239.531Z" fill="#33794F"/>
<path d="M479.712 89.8886C484.797 93.0185 489.068 97.3089 492.174 102.408C495.281 107.507 497.134 113.27 497.583 119.224C497.702 120.907 497.996 122.841 496.621 124.107C496.113 124.601 495.453 124.909 494.748 124.98C494.042 125.051 493.334 124.88 492.738 124.496C492.047 123.917 491.565 123.125 491.369 122.244C491.173 121.364 491.273 120.443 491.653 119.625C492.034 118.806 492.674 118.137 493.473 117.719C494.273 117.301 495.189 117.159 496.078 117.315C500.554 117.699 502.953 122.061 504.907 125.563C509.353 133.539 514.698 141.456 522.635 146.316C529.982 150.815 539.707 152.168 547.432 147.831C548.781 147.076 547.515 145.031 546.17 145.787C538.507 150.092 528.795 147.931 521.969 143.006C517.95 139.981 514.479 136.29 511.706 132.093C510.241 129.966 508.898 127.759 507.626 125.513C506.475 123.263 505.127 121.12 503.597 119.108C500.956 115.923 496.421 113.65 492.364 115.593C488.575 117.403 487.638 123.271 490.876 126.069C491.599 126.657 492.457 127.057 493.373 127.232C494.288 127.407 495.233 127.352 496.123 127.073C497.012 126.793 497.818 126.297 498.469 125.63C499.119 124.962 499.594 124.143 499.851 123.247C500.418 121.296 500.009 118.875 499.749 116.895C498.976 110.936 496.875 105.225 493.602 100.185C490.33 95.1441 485.968 90.9017 480.839 87.7699C479.511 86.9774 478.387 89.0997 479.712 89.8886Z" fill="#CCCCCC"/>
<path d="M643.342 80.767C639.298 78.2781 635.902 74.8662 633.431 70.8111C630.96 66.7559 629.485 62.1729 629.127 57.4378C629.033 56.0989 628.8 54.5592 629.893 53.5548C630.296 53.1613 630.821 52.9164 631.382 52.8601C631.943 52.8037 632.507 52.9393 632.98 53.2447C633.528 53.7067 633.908 54.3359 634.063 55.0353C634.217 55.7348 634.137 56.4656 633.835 57.1151C633.533 57.7645 633.026 58.2966 632.391 58.6293C631.757 58.9619 631.031 59.0766 630.325 58.9556C626.766 58.6482 624.858 55.1815 623.302 52.3959C619.766 46.0524 615.515 39.7552 609.2 35.8877C603.36 32.3109 595.621 31.2323 589.477 34.6824C588.402 35.286 589.409 36.9114 590.48 36.3076C596.573 32.8857 604.3 34.5979 609.728 38.5186C612.924 40.9253 615.685 43.8615 617.891 47.1999C619.056 48.891 620.124 50.6471 621.135 52.4362C622.05 54.2255 623.123 55.93 624.339 57.5298C626.44 60.0638 630.043 61.8694 633.271 60.3247C633.99 59.9343 634.608 59.381 635.075 58.7092C635.541 58.0374 635.844 57.2656 635.96 56.4557C636.075 55.6458 635.999 54.8202 635.737 54.0449C635.476 53.2696 635.037 52.5662 634.456 51.991C633.881 51.5231 633.198 51.2052 632.47 51.0658C631.742 50.9264 630.99 50.9698 630.283 51.1921C629.575 51.4145 628.934 51.8088 628.416 52.3398C627.899 52.8708 627.521 53.5219 627.317 54.2347C627.015 55.908 627.043 57.624 627.398 59.2868C628.014 64.0279 629.685 68.5705 632.289 72.58C634.893 76.5894 638.364 79.9636 642.445 82.454C643.501 83.0849 644.396 81.3956 643.342 80.767Z" fill="#CCCCCC"/>
<path d="M618.77 136.236L613.746 133.564L604.966 150.072L609.99 152.744L618.77 136.236Z" fill="#CCCCCC"/>
<path d="M543.642 81.5135L548.994 79.8766L543.616 62.293L538.264 63.93L543.642 81.5135Z" fill="#B3B3B3"/>
<path d="M447.892 258.163L449.529 263.515L467.113 258.137L465.476 252.785L447.892 258.163Z" fill="#FF6584"/>
<path d="M307.76 260.19C359.101 260.19 400.721 218.57 400.721 167.229C400.721 115.888 359.101 74.2678 307.76 74.2678C256.419 74.2678 214.799 115.888 214.799 167.229C214.799 218.57 256.419 260.19 307.76 260.19Z" fill="#33794F"/>
<path d="M298.544 202.691C296.452 202.694 294.417 202.017 292.744 200.763L292.644 200.685L270.797 183.973C268.774 182.399 267.456 180.089 267.13 177.547C266.804 175.005 267.495 172.437 269.055 170.404C270.614 168.37 272.914 167.035 275.453 166.69C277.993 166.345 280.566 167.018 282.611 168.563L296.762 179.415L330.201 135.79C330.975 134.778 331.942 133.928 333.045 133.29C334.149 132.652 335.367 132.237 336.631 132.07C337.894 131.903 339.178 131.986 340.41 132.316C341.641 132.645 342.795 133.214 343.807 133.99L343.6 134.278L343.813 133.99C345.854 135.557 347.19 137.87 347.527 140.422C347.865 142.973 347.176 145.554 345.613 147.599L306.281 198.889C305.371 200.07 304.201 201.027 302.862 201.683C301.522 202.34 300.05 202.679 298.559 202.675L298.544 202.691Z" fill="white"/>
<path d="M245.652 97.9468C244.756 97.9439 243.898 97.5866 243.264 96.9529C242.631 96.3193 242.274 95.4607 242.272 94.5648C242.268 94.2988 242.298 94.0333 242.361 93.7748L259.861 16.6838C259.993 16.1031 260.276 15.5673 260.681 15.1303C261.086 14.6933 261.599 14.3702 262.167 14.1936C262.736 14.017 263.342 13.993 263.923 14.1239C264.504 14.2549 265.041 14.5363 265.479 14.9398L323.503 68.6678C323.94 69.0726 324.262 69.5849 324.439 70.1535C324.615 70.7221 324.639 71.3271 324.509 71.9079C324.378 72.4888 324.097 73.0252 323.694 73.4633C323.291 73.9015 322.78 74.2262 322.212 74.4048L246.672 97.7948C246.341 97.8957 245.997 97.947 245.652 97.9468Z" fill="#3F3D56"/>
<path d="M293.109 41.5909L256.662 34.3379L257.236 31.8069L289.462 38.2129L293.109 41.5909Z" fill="white"/>
<path d="M321.808 68.1759L252.123 54.3099L252.697 51.7659L318.155 64.7839L321.808 68.1759Z" fill="white"/>
<path d="M296.88 81.4298L291.65 83.0468L247.598 74.2808L248.171 71.7368L296.88 81.4298Z" fill="white"/>
<path d="M110.981 210.703C115.11 209.673 117.623 205.491 116.594 201.361C115.564 197.232 111.382 194.719 107.252 195.749C103.123 196.778 100.61 200.96 101.64 205.09C102.669 209.219 106.852 211.732 110.981 210.703Z" fill="#33794F"/>
<path d="M42.4645 28.0953C45.414 27.3599 47.2089 24.3728 46.4735 21.4233C45.7381 18.4738 42.7509 16.6789 39.8014 17.4143C36.852 18.1497 35.0571 21.1369 35.7925 24.0864C36.5279 27.0358 39.515 28.8307 42.4645 28.0953Z" fill="#FF6584"/>
<path d="M74.1598 172.232C77.1093 171.497 78.9042 168.51 78.1688 165.56C77.4334 162.611 74.4462 160.816 71.4968 161.551C68.5473 162.287 66.7524 165.274 67.4878 168.223C68.2232 171.173 71.2104 172.968 74.1598 172.232Z" fill="#33794F"/>
<path d="M102.406 258.221C105.355 257.486 107.15 254.499 106.415 251.549C105.68 248.6 102.692 246.805 99.7429 247.54C96.7934 248.276 94.9985 251.263 95.7339 254.212C96.4693 257.162 99.4564 258.957 102.406 258.221Z" fill="#E6E6E6"/>
<path d="M8.00358 79.8113C10.9531 79.0759 12.7479 76.0887 12.0126 73.1392C11.2772 70.1897 8.28999 68.3949 5.34051 69.1303C2.39103 69.8656 0.59615 72.8528 1.33154 75.8023C2.06693 78.7518 5.0541 80.5467 8.00358 79.8113Z" fill="#CCCCCC"/>
<path d="M153.655 178.333C149.307 176.855 145.37 174.367 142.169 171.074C138.967 167.781 136.592 163.776 135.237 159.387C134.859 158.141 134.309 156.743 135.124 155.561C135.42 155.103 135.862 154.759 136.379 154.586C136.896 154.412 137.457 154.419 137.969 154.605C138.584 154.923 139.078 155.435 139.374 156.061C139.67 156.688 139.752 157.394 139.606 158.071C139.461 158.749 139.097 159.359 138.571 159.81C138.044 160.26 137.384 160.524 136.692 160.562C133.269 161.039 130.722 158.176 128.66 155.885C123.958 150.668 118.599 145.638 111.813 143.347C105.531 141.228 98.0055 141.876 92.953 146.45C92.0694 147.251 93.3686 148.563 94.2512 147.767C99.2614 143.23 106.92 143.188 112.878 145.716C116.41 147.298 119.645 149.473 122.442 152.147C123.905 153.491 125.289 154.918 126.628 156.386C127.876 157.876 129.254 159.254 130.746 160.501C133.271 162.438 137.058 163.368 139.772 161.217C140.366 160.694 140.829 160.04 141.125 159.306C141.42 158.572 141.54 157.78 141.474 156.991C141.409 156.203 141.16 155.441 140.747 154.766C140.334 154.091 139.769 153.522 139.097 153.104C138.454 152.786 137.742 152.633 137.025 152.658C136.308 152.683 135.608 152.885 134.989 153.247C134.369 153.608 133.849 154.118 133.475 154.73C133.101 155.343 132.884 156.038 132.845 156.755C132.92 158.397 133.314 160.01 134.007 161.501C135.607 165.841 138.16 169.766 141.478 172.987C144.796 176.209 148.795 178.645 153.179 180.116C154.311 180.484 154.792 178.7 153.663 178.333L153.655 178.333Z" fill="#CCCCCC"/>
<path d="M20.6694 140.901L25.3066 143.687L34.4614 128.451L29.8242 125.664L20.6694 140.901Z" fill="#B3B3B3"/>
<path d="M19.981 269.407C24.1105 268.377 26.6234 264.195 25.5938 260.065C24.5642 255.936 20.382 253.423 16.2525 254.453C12.123 255.482 9.61004 259.665 10.6396 263.794C11.6692 267.923 15.8515 270.436 19.981 269.407Z" fill="#33794F"/>
</svg>
