<svg width="90" height="90" viewBox="0 0 90 90" fill="none" xmlns="http://www.w3.org/2000/svg">
<path d="M44.9999 89.9999C69.8527 89.9999 89.9999 69.8527 89.9999 44.9999C89.9999 20.1472 69.8527 0 44.9999 0C20.1472 0 0 20.1472 0 44.9999C0 69.8527 20.1472 89.9999 44.9999 89.9999Z" fill="#33794F"/>
<path d="M40.5383 62.166C39.526 62.1677 38.5406 61.8401 37.7307 61.2327L37.6823 61.195L27.1067 53.1052C26.1277 52.3432 25.4897 51.2251 25.3317 49.9947C25.1738 48.7642 25.5087 47.5212 26.2635 46.5367C27.0182 45.5522 28.1316 44.906 29.3609 44.7391C30.5902 44.5722 31.8356 44.898 32.8256 45.6456L39.6757 50.8988L55.8626 29.7811C56.2377 29.2911 56.7056 28.8799 57.2397 28.571C57.7738 28.262 58.3635 28.0613 58.9752 27.9804C59.5869 27.8995 60.2085 27.9399 60.8046 28.0993C61.4006 28.2588 61.9594 28.5342 62.4489 28.9097L62.3487 29.0491L62.4518 28.9097C63.44 29.6685 64.0867 30.7883 64.2501 32.0234C64.4134 33.2585 64.0801 34.5079 63.3232 35.4975L44.2836 60.3256C43.8431 60.8976 43.2768 61.3605 42.6285 61.6783C41.9803 61.9961 41.2675 62.1604 40.5456 62.1583L40.5383 62.166Z" fill="white"/>
</svg>
